<svg width="480" height="141" viewBox="0 0 480 141" fill="none" xmlns="http://www.w3.org/2000/svg">
<path d="M113.965 117.779L125.055 92.8993H130.742L141.866 117.779H135.824L126.725 95.8138H129L119.865 117.779H113.965ZM119.51 112.448L121.038 108.076H133.834L135.398 112.448H119.51ZM144.448 117.779V92.8993H155.75C158.452 92.8993 160.833 93.4206 162.894 94.4632C164.956 95.4821 166.567 96.9156 167.728 98.7639C168.889 100.612 169.47 102.804 169.47 105.339C169.47 107.851 168.889 110.043 167.728 111.915C166.567 113.763 164.956 115.208 162.894 116.251C160.833 117.27 158.452 117.779 155.75 117.779H144.448ZM150.206 113.052H155.466C157.125 113.052 158.558 112.744 159.767 112.128C160.999 111.488 161.947 110.588 162.61 109.427C163.297 108.266 163.641 106.903 163.641 105.339C163.641 103.752 163.297 102.389 162.61 101.252C161.947 100.091 160.999 99.2022 159.767 98.5861C158.558 97.9464 157.125 97.6265 155.466 97.6265H150.206V113.052ZM173.812 117.779V92.8993H178.575L189.167 110.457H186.643L197.057 92.8993H201.784L201.856 117.779H196.453L196.418 101.181H197.413L189.096 115.149H186.501L178.006 101.181H179.215V117.779H173.812ZM207.758 117.779V92.8993H213.516V117.779H207.758ZM219.421 117.779V92.8993H224.184L238.863 110.813H236.553V92.8993H242.24V117.779H237.512L222.798 99.8657H225.108V117.779H219.421Z" fill="#FA756D"/>
<path d="M118.403 74V29.9731H128.655L146.894 59.9114H141.485L159.222 29.9731H169.474L169.6 74H158.153L158.027 47.3952H159.977L146.706 69.6602H141.171L127.523 47.3952H129.913V74H118.403ZM195.708 74.5661C191.682 74.5661 188.16 73.8113 185.141 72.3018C182.164 70.7504 179.837 68.6539 178.16 66.0123C176.525 63.3287 175.707 60.2888 175.707 56.8924C175.707 53.4961 176.504 50.4771 178.097 47.8355C179.732 45.1519 181.975 43.0764 184.827 41.6088C187.678 40.0993 190.886 39.3446 194.45 39.3446C197.804 39.3446 200.865 40.0364 203.632 41.4201C206.4 42.7619 208.601 44.7536 210.237 47.3952C211.872 50.0368 212.689 53.2445 212.689 57.0182C212.689 57.4375 212.668 57.9197 212.627 58.4648C212.585 59.0099 212.543 59.5131 212.501 59.9743H185.519V53.6847H206.148L201.62 55.4458C201.662 53.8944 201.368 52.5526 200.739 51.4205C200.152 50.2884 199.314 49.4079 198.223 48.7789C197.175 48.1499 195.938 47.8355 194.513 47.8355C193.087 47.8355 191.829 48.1499 190.739 48.7789C189.691 49.4079 188.873 50.3094 188.286 51.4834C187.699 52.6155 187.405 53.9573 187.405 55.5087V57.3327C187.405 59.0099 187.741 60.4565 188.412 61.6725C189.125 62.8885 190.131 63.8319 191.431 64.5028C192.731 65.1317 194.282 65.4462 196.085 65.4462C197.762 65.4462 199.188 65.2156 200.362 64.7544C201.578 64.2512 202.773 63.4964 203.947 62.4901L210.237 69.0313C208.601 70.8343 206.589 72.218 204.199 73.1824C201.809 74.1048 198.978 74.5661 195.708 74.5661ZM218.199 74V39.9106H229.583V49.8481L227.885 47.0178C228.891 44.4601 230.527 42.5522 232.791 41.2943C235.055 39.9945 237.802 39.3446 241.03 39.3446V50.0997C240.485 50.0158 240.003 49.9739 239.584 49.9739C239.206 49.932 238.787 49.911 238.326 49.911C235.894 49.911 233.923 50.5819 232.414 51.9237C230.904 53.2235 230.149 55.362 230.149 58.339V74H218.199ZM245.962 74V39.9106H257.912V74H245.962ZM251.937 36.1369C249.756 36.1369 247.995 35.5289 246.654 34.3129C245.312 33.097 244.641 31.5875 244.641 29.7845C244.641 27.9814 245.312 26.472 246.654 25.256C247.995 24.04 249.756 23.432 251.937 23.432C254.117 23.432 255.878 24.019 257.22 25.1931C258.562 26.3252 259.233 27.7928 259.233 29.5958C259.233 31.4826 258.562 33.055 257.22 34.3129C255.92 35.5289 254.159 36.1369 251.937 36.1369ZM280.521 74.5661C277.418 74.5661 274.588 73.8532 272.03 72.4276C269.515 70.9601 267.502 68.9264 265.992 66.3267C264.483 63.6851 263.728 60.5404 263.728 56.8924C263.728 53.2864 264.483 50.1836 265.992 47.5839C267.502 44.9423 269.515 42.9087 272.03 41.483C274.588 40.0574 277.418 39.3446 280.521 39.3446C283.456 39.3446 285.93 39.9735 287.943 41.2314C289.998 42.4893 291.549 44.4181 292.597 47.0178C293.645 49.6175 294.17 52.909 294.17 56.8924C294.17 60.9597 293.666 64.2931 292.66 66.8928C291.654 69.4925 290.144 71.4213 288.132 72.6792C286.119 73.9371 283.582 74.5661 280.521 74.5661ZM283.037 65.0688C284.379 65.0688 285.574 64.7544 286.622 64.1254C287.712 63.4964 288.572 62.574 289.201 61.358C289.83 60.1001 290.144 58.6116 290.144 56.8924C290.144 55.1733 289.83 53.7267 289.201 52.5526C288.572 51.3367 287.712 50.4142 286.622 49.7852C285.574 49.1563 284.379 48.8418 283.037 48.8418C281.653 48.8418 280.416 49.1563 279.326 49.7852C278.278 50.4142 277.439 51.3367 276.81 52.5526C276.181 53.7267 275.867 55.1733 275.867 56.8924C275.867 58.6116 276.181 60.1001 276.81 61.358C277.439 62.574 278.278 63.4964 279.326 64.1254C280.416 64.7544 281.653 65.0688 283.037 65.0688ZM290.522 74V68.1507L290.585 56.8924L289.956 45.6341V27.3315H301.906V74H290.522ZM309.594 74V39.9106H321.544V74H309.594ZM315.569 36.1369C313.389 36.1369 311.628 35.5289 310.286 34.3129C308.944 33.097 308.273 31.5875 308.273 29.7845C308.273 27.9814 308.944 26.472 310.286 25.256C311.628 24.04 313.389 23.432 315.569 23.432C317.75 23.432 319.511 24.019 320.853 25.1931C322.194 26.3252 322.865 27.7928 322.865 29.5958C322.865 31.4826 322.194 33.055 320.853 34.3129C319.553 35.5289 317.792 36.1369 315.569 36.1369ZM350.129 74V67.6476L349.311 66.0752V54.3766C349.311 52.4897 348.724 51.0431 347.55 50.0368C346.418 48.9886 344.594 48.4644 342.078 48.4644C340.443 48.4644 338.787 48.737 337.11 49.2821C335.432 49.7852 334.007 50.498 332.833 51.4205L328.807 43.307C330.736 42.0491 333.042 41.0847 335.726 40.4138C338.451 39.701 341.156 39.3446 343.839 39.3446C349.374 39.3446 353.651 40.6234 356.67 43.1812C359.731 45.697 361.261 49.6594 361.261 55.0684V74H350.129ZM340.066 74.5661C337.34 74.5661 335.034 74.1048 333.147 73.1824C331.26 72.2599 329.814 71.002 328.807 69.4086C327.843 67.8153 327.361 66.0332 327.361 64.0625C327.361 61.966 327.885 60.163 328.933 58.6535C330.023 57.1021 331.68 55.928 333.902 55.1313C336.124 54.2927 338.996 53.8734 342.519 53.8734H350.569V60.1001H344.154C342.225 60.1001 340.862 60.4146 340.066 61.0435C339.311 61.6725 338.934 62.5111 338.934 63.5593C338.934 64.6076 339.332 65.4462 340.129 66.0752C340.925 66.7041 342.015 67.0186 343.399 67.0186C344.699 67.0186 345.873 66.7041 346.921 66.0752C348.011 65.4043 348.808 64.398 349.311 63.0562L350.947 67.4589C350.318 69.807 349.081 71.589 347.236 72.805C345.433 73.979 343.043 74.5661 340.066 74.5661ZM391.007 39.3446C393.648 39.3446 396.038 39.8897 398.177 40.9799C400.315 42.0281 401.992 43.6634 403.208 45.8857C404.466 48.108 405.095 50.9802 405.095 54.5024V74H393.145V56.4522C393.145 54.0202 392.642 52.2591 391.636 51.1689C390.671 50.0368 389.308 49.4707 387.547 49.4707C386.289 49.4707 385.136 49.7643 384.088 50.3513C383.04 50.8964 382.222 51.756 381.635 52.93C381.048 54.1041 380.755 55.6345 380.755 57.5214V74H368.804V39.9106H380.189V49.5965L377.987 46.7662C379.287 44.2924 381.069 42.4474 383.333 41.2314C385.598 39.9735 388.155 39.3446 391.007 39.3446Z" fill="#414141"/>
<g clip-path="url(#clip0_10101_7761)">
<rect x="13.4062" y="42.166" width="77" height="77" rx="38.5" transform="rotate(-21.1323 13.4062 42.166)" fill="url(#paint0_linear_10101_7761)" fill-opacity="0.3"/>
<path d="M49.1307 27.869C69.0853 20.2092 91.472 30.1763 99.1318 50.131C106.792 70.0855 96.8241 92.4714 76.8695 100.131C56.9151 107.791 34.5295 97.8242 26.8696 77.8698C19.2098 57.9154 29.1763 35.5291 49.1307 27.869ZM51.2978 33.1303C50.7835 33.3277 50.1553 34.0624 49.8106 35.9816C49.4808 37.8186 49.4855 40.377 49.8506 43.5113C50.5786 49.7616 52.7067 58.0341 56.0815 66.8259C59.4564 75.6177 63.4103 83.1894 67.0515 88.3213C68.8774 90.8948 70.5856 92.7984 72.0599 93.9429C73.6003 95.1386 74.5586 95.2641 75.0729 95.0666C75.5872 94.8691 76.2155 94.1345 76.56 92.2154C76.8898 90.3784 76.8855 87.8207 76.5204 84.6866C75.7924 78.4363 73.6643 70.1638 70.2895 61.372C66.9146 52.5802 62.9607 45.0086 59.3195 39.8765C57.4935 37.303 55.7851 35.3986 54.3108 34.2541C52.7706 33.0585 51.8121 32.933 51.2978 33.1303ZM41.7799 39.0465C41.1097 39.304 40.233 40.2076 39.4469 42.0812C38.6856 43.8954 38.1047 46.4009 37.8646 49.4481C37.3851 55.5342 38.2783 63.625 41.6178 72.3247C44.9575 81.0246 49.7516 87.7497 54.2286 92.0668C56.4701 94.2282 58.6028 95.7578 60.4017 96.6377C62.2647 97.5489 63.5216 97.6459 64.1775 97.3943C64.4432 97.2924 64.5112 97.1817 64.5532 97.0514C64.6202 96.8434 64.6452 96.4455 64.4876 95.7523C64.1715 94.3616 63.2753 92.3917 61.9428 89.774C59.3243 84.6302 55.2175 77.3526 51.7887 68.4204C48.3593 59.4865 46.5845 51.4418 45.131 45.9778C44.3909 43.1957 43.7616 41.1934 43.0851 39.9942C42.7488 39.3981 42.4745 39.1394 42.2974 39.0403C42.1878 38.979 42.0597 38.9391 41.7799 39.0465ZM62.3101 31.1155C62.0305 31.2228 61.9615 31.3375 61.921 31.4562C61.8557 31.6482 61.8259 32.0238 61.9748 32.6919C62.2744 34.0357 63.1459 35.9457 64.4577 38.5088C67.0337 43.5418 71.0982 50.7068 74.5276 59.6405C77.9565 68.573 79.7735 76.7302 81.2695 82.305C82.0307 85.1415 82.6826 87.2046 83.3782 88.4496C83.7251 89.0705 84.0101 89.3501 84.1991 89.4598C84.3175 89.5285 84.4421 89.5653 84.7077 89.4633C85.3634 89.2114 86.2326 88.2982 87.0074 86.3745C87.7555 84.517 88.3169 81.9532 88.5364 78.8471C88.9748 72.6431 88.0373 64.4368 84.6976 55.7366C81.3581 47.0372 76.6084 40.4275 72.1797 36.2255C69.9623 34.1217 67.8541 32.6484 66.0745 31.8096C64.2364 30.9433 62.9804 30.8583 62.3101 31.1155ZM77.2719 34.7353C77.6098 35.528 78.4446 36.6742 79.7276 38.4318C82.212 41.8356 85.9247 46.965 88.769 54.3746C91.6131 61.7838 92.2953 68.1044 92.7359 72.3197C92.9633 74.4953 93.1149 75.92 93.3982 76.7455C93.4094 76.7783 93.4204 76.8086 93.431 76.8364C94.6585 74.2827 97.2562 65.7533 92.3593 52.9964C89.6371 45.9049 86.035 41.1862 82.9349 38.277C81.3824 36.8201 79.9627 35.8229 78.8502 35.2089C78.293 34.9014 77.8272 34.6987 77.4727 34.5797C77.3549 34.5402 77.2587 34.5137 77.183 34.4953C77.2007 34.5558 77.2291 34.6346 77.2719 34.7353ZM32.7489 51.643C32.5651 51.9686 32.355 52.4317 32.1466 53.0332C31.7307 54.2339 31.3429 55.925 31.164 58.0464C30.8069 62.2827 31.2884 68.1995 34.0105 75.2909C38.9075 88.0479 46.5444 92.6486 49.1652 93.7249C49.1544 93.6969 49.1421 93.6666 49.1284 93.6344C48.7865 92.8315 47.9461 91.6719 46.6595 89.9032C44.1664 86.4759 40.444 81.3221 37.5999 73.913C34.7556 66.5035 34.0824 60.2072 33.6512 56.0153C33.4285 53.8507 33.2819 52.4403 33.0025 51.6251C32.967 51.5215 32.935 51.4432 32.9078 51.3864C32.8639 51.4506 32.81 51.5349 32.7489 51.643Z" fill="url(#paint1_linear_10101_7761)"/>
</g>
<defs>
<linearGradient id="paint0_linear_10101_7761" x1="51.9063" y1="42.166" x2="51.9063" y2="119.166" gradientUnits="userSpaceOnUse">
<stop offset="0.5" stop-color="#414141"/>
<stop offset="1" stop-color="#FA756D"/>
</linearGradient>
<linearGradient id="paint1_linear_10101_7761" x1="49.1312" y1="27.8688" x2="76.8701" y2="100.131" gradientUnits="userSpaceOnUse">
<stop offset="0.5" stop-color="#414141"/>
<stop offset="1" stop-color="#FA756D"/>
</linearGradient>
<clipPath id="clip0_10101_7761">
<rect width="98.3271" height="98.3271" fill="white" transform="translate(0 35.4492) rotate(-21.1323)"/>
</clipPath>
</defs>
</svg>
