<svg width="2388" height="686" viewBox="0 0 2388 686" fill="none" xmlns="http://www.w3.org/2000/svg">
<path d="M571.08 480L571.08 227.565L619.403 227.565L726.868 405.712L701.264 405.712L806.926 227.565L854.889 227.565L855.61 480L800.795 480L800.435 311.59L810.532 311.59L726.147 453.314L699.822 453.314L613.633 311.59L625.894 311.59L625.894 480L571.08 480ZM1007.82 482.885C985.702 482.885 966.228 478.558 949.399 469.903C932.811 461.248 919.949 449.467 910.813 434.562C901.677 419.416 897.109 402.226 897.109 382.993C897.109 363.519 901.557 346.33 910.452 331.424C919.588 316.278 931.969 304.498 947.596 296.083C963.223 287.428 980.894 283.101 1000.61 283.101C1019.6 283.101 1036.67 287.188 1051.82 295.362C1067.2 303.296 1079.34 314.836 1088.24 329.982C1097.13 344.887 1101.58 362.798 1101.58 383.714C1101.58 385.878 1101.46 388.402 1101.22 391.287C1100.98 393.932 1100.74 396.456 1100.5 398.86L942.908 398.86L942.908 366.044L1070.93 366.044L1049.29 375.781C1049.29 365.683 1047.25 356.908 1043.16 349.455C1039.07 342.002 1033.42 336.232 1026.21 332.145C1019 327.818 1010.58 325.654 1000.97 325.654C991.352 325.654 982.817 327.818 975.364 332.145C968.152 336.232 962.502 342.123 958.415 349.816C954.328 357.269 952.284 366.164 952.284 376.502L952.284 385.157C952.284 395.735 954.568 405.111 959.136 413.285C963.944 421.219 970.556 427.349 978.97 431.677C987.625 435.764 997.723 437.807 1009.26 437.807C1019.6 437.807 1028.62 436.245 1036.31 433.119C1044.24 429.994 1051.46 425.306 1057.95 419.055L1087.88 451.511C1078.98 461.608 1067.8 469.422 1054.34 474.951C1040.88 480.24 1025.37 482.885 1007.82 482.885ZM1139.04 480L1139.04 285.986L1192.77 285.986L1192.77 340.8L1185.19 324.933C1190.96 311.229 1200.22 300.892 1212.96 293.92C1225.7 286.707 1241.21 283.101 1259.48 283.101L1259.48 335.03C1257.08 334.79 1254.91 334.67 1252.99 334.67C1251.07 334.429 1249.02 334.309 1246.86 334.309C1231.47 334.309 1218.97 338.757 1209.36 347.652C1199.98 356.307 1195.29 369.89 1195.29 388.402L1195.29 480L1139.04 480ZM1293.29 480L1293.29 285.986L1349.54 285.986L1349.54 480L1293.29 480ZM1321.41 258.939C1311.08 258.939 1302.66 255.934 1296.17 249.924C1289.68 243.914 1286.43 236.461 1286.43 227.565C1286.43 218.67 1289.68 211.217 1296.17 205.207C1302.66 199.197 1311.08 196.191 1321.41 196.191C1331.75 196.191 1340.17 199.076 1346.66 204.846C1353.15 210.376 1356.39 217.588 1356.39 226.484C1356.39 235.86 1353.15 243.673 1346.66 249.924C1340.41 255.934 1331.99 258.939 1321.41 258.939ZM1485.06 482.885C1466.79 482.885 1450.32 478.798 1435.65 470.624C1420.99 462.209 1409.33 450.549 1400.67 435.644C1392.26 420.738 1388.05 403.188 1388.05 382.993C1388.05 362.558 1392.26 344.887 1400.67 329.982C1409.33 315.076 1420.99 303.536 1435.65 295.362C1450.32 287.188 1466.79 283.101 1485.06 283.101C1501.4 283.101 1515.71 286.707 1527.97 293.92C1540.23 301.132 1549.73 312.071 1556.46 326.736C1563.19 341.401 1566.56 360.154 1566.56 382.993C1566.56 405.592 1563.31 424.344 1556.82 439.25C1550.33 453.915 1540.95 464.854 1528.69 472.066C1516.67 479.279 1502.13 482.885 1485.06 482.885ZM1494.79 436.726C1503.93 436.726 1512.22 434.562 1519.68 430.234C1527.13 425.907 1533.02 419.776 1537.35 411.843C1541.91 403.669 1544.2 394.052 1544.2 382.993C1544.2 371.694 1541.91 362.077 1537.35 354.143C1533.02 346.21 1527.13 340.079 1519.68 335.752C1512.22 331.424 1503.93 329.26 1494.79 329.26C1485.42 329.26 1477 331.424 1469.55 335.752C1462.1 340.079 1456.09 346.21 1451.52 354.143C1447.19 362.077 1445.03 371.694 1445.03 382.993C1445.03 394.052 1447.19 403.669 1451.52 411.843C1456.09 419.776 1462.1 425.907 1469.55 430.234C1477 434.562 1485.42 436.726 1494.79 436.726ZM1545.64 480L1545.64 440.332L1546.72 382.632L1543.12 325.294L1543.12 212.419L1599.37 212.419L1599.37 480L1545.64 480ZM1651.44 480L1651.44 285.986L1707.7 285.986L1707.7 480L1651.44 480ZM1679.57 258.939C1669.23 258.939 1660.82 255.934 1654.33 249.924C1647.83 243.914 1644.59 236.461 1644.59 227.565C1644.59 218.67 1647.83 211.217 1654.33 205.207C1660.82 199.197 1669.23 196.191 1679.57 196.191C1689.91 196.191 1698.32 199.076 1704.81 204.846C1711.3 210.376 1714.55 217.588 1714.55 226.484C1714.55 235.86 1711.3 243.673 1704.81 249.924C1698.56 255.934 1690.15 258.939 1679.57 258.939ZM1878.91 480L1878.91 442.135L1875.31 433.841L1875.31 366.044C1875.31 354.023 1871.58 344.647 1864.13 337.915C1856.92 331.184 1845.74 327.818 1830.59 327.818C1820.25 327.818 1810.04 329.501 1799.94 332.867C1790.08 335.992 1781.67 340.32 1774.69 345.849L1754.5 306.541C1765.08 299.089 1777.82 293.319 1792.73 289.232C1807.63 285.145 1822.78 283.101 1838.16 283.101C1867.73 283.101 1890.69 290.073 1907.04 304.017C1923.39 317.961 1931.56 339.718 1931.56 369.289L1931.56 480L1878.91 480ZM1819.77 482.885C1804.63 482.885 1791.64 480.361 1780.83 475.312C1770.01 470.023 1761.71 462.931 1755.94 454.035C1750.17 445.14 1747.29 435.163 1747.29 424.104C1747.29 412.564 1750.05 402.467 1755.58 393.812C1761.35 385.157 1770.37 378.425 1782.63 373.617C1794.89 368.568 1810.88 366.044 1830.59 366.044L1882.16 366.044L1882.16 398.86L1836.72 398.86C1823.5 398.86 1814.36 401.024 1809.31 405.351C1804.51 409.679 1802.1 415.088 1802.1 421.579C1802.1 428.792 1804.87 434.562 1810.4 438.889C1816.17 442.976 1823.98 445.02 1833.84 445.02C1843.21 445.02 1851.63 442.856 1859.08 438.529C1866.53 433.961 1871.94 427.349 1875.31 418.694L1883.96 444.659C1879.88 457.161 1872.42 466.657 1861.6 473.148C1850.79 479.639 1836.84 482.885 1819.77 482.885ZM1982.48 480L1982.48 285.986L2036.21 285.986L2036.21 339.718L2026.11 323.491C2033.09 310.508 2043.06 300.531 2056.05 293.559C2069.03 286.587 2083.81 283.101 2100.4 283.101C2115.79 283.101 2129.49 286.226 2141.51 292.477C2153.77 298.488 2163.39 307.864 2170.36 320.606C2177.34 333.107 2180.82 349.215 2180.82 368.929L2180.82 480L2124.56 480L2124.56 377.584C2124.56 361.957 2121.08 350.417 2114.11 342.964C2107.37 335.511 2097.76 331.785 2085.26 331.785C2076.36 331.785 2068.31 333.708 2061.1 337.555C2054.12 341.161 2048.59 346.811 2044.51 354.504C2040.66 362.197 2038.74 372.054 2038.74 384.075L2038.74 480L1982.48 480Z" fill="#414141"/>
<path d="M268.025 205.67C348.12 174.925 437.973 214.93 468.719 295.025C499.464 375.119 459.459 464.973 379.364 495.719C299.269 526.465 209.415 486.459 178.67 406.364C147.924 326.269 187.93 236.415 268.025 205.67ZM276.725 226.784C274.661 227.576 272.139 230.525 270.756 238.229C269.432 245.602 269.452 255.868 270.917 268.449C273.839 293.537 282.379 326.742 295.926 362.031C309.472 397.321 325.344 427.711 339.959 448.31C347.288 458.639 354.143 466.282 360.061 470.875C366.244 475.675 370.09 476.179 372.155 475.387C374.219 474.594 376.739 471.646 378.123 463.942C379.446 456.568 379.429 446.302 377.963 433.721C375.041 408.634 366.501 375.43 352.954 340.14C339.408 304.85 323.537 274.46 308.921 253.86C301.592 243.531 294.736 235.889 288.818 231.295C282.635 226.496 278.789 225.991 276.725 226.784ZM238.529 250.534C235.839 251.566 232.32 255.193 229.164 262.714C226.109 269.996 223.776 280.053 222.813 292.284C220.888 316.713 224.473 349.186 237.877 384.105C251.282 419.026 270.526 446.02 288.496 463.348C297.493 472.024 306.053 478.163 313.273 481.694C320.752 485.352 325.797 485.742 328.43 484.732C329.496 484.323 329.767 483.88 329.936 483.358C330.205 482.523 330.305 480.926 329.672 478.141C328.403 472.559 324.807 464.655 319.458 454.148C308.948 433.501 292.462 404.289 278.699 368.435C264.934 332.575 257.813 300.287 251.979 278.355C249.008 267.187 246.48 259.15 243.764 254.337C242.414 251.943 241.316 250.904 240.605 250.507C240.165 250.261 239.652 250.103 238.529 250.534ZM320.927 218.698C319.804 219.129 319.529 219.589 319.367 220.066C319.104 220.837 318.983 222.344 319.581 225.026C320.784 230.42 324.283 238.085 329.548 248.372C339.888 268.574 356.201 297.334 369.966 333.194C383.729 369.047 391.025 401.788 397.029 424.164C400.085 435.551 402.702 443.831 405.494 448.828C406.887 451.321 408.03 452.442 408.789 452.882C409.264 453.158 409.761 453.305 410.827 452.895C413.459 451.885 416.948 448.22 420.059 440.497C423.061 433.041 425.315 422.751 426.196 410.284C427.955 385.382 424.193 352.445 410.788 317.523C397.384 282.604 378.319 256.073 360.543 239.207C351.643 230.762 343.181 224.85 336.038 221.483C328.659 218.006 323.618 217.665 320.927 218.698ZM380.632 232.261C380.704 232.504 380.815 232.822 380.987 233.227C382.343 236.409 385.695 241.01 390.844 248.065C400.817 261.727 415.72 282.315 427.136 312.056C438.552 341.795 441.291 367.165 443.059 384.084C443.972 392.817 444.578 398.534 445.715 401.848C445.76 401.98 445.806 402.103 445.848 402.215C450.775 391.966 461.202 357.73 441.546 306.524C430.619 278.06 416.164 259.119 403.72 247.442C397.489 241.594 391.789 237.593 387.324 235.128C385.087 233.894 383.218 233.078 381.795 232.6C381.322 232.442 380.936 232.335 380.632 232.261ZM202.911 300.07C202.734 300.328 202.519 300.664 202.274 301.099C201.536 302.405 200.694 304.263 199.858 306.677C198.189 311.496 196.629 318.282 195.911 326.798C194.477 343.802 196.409 367.552 207.336 396.016C226.992 447.222 257.648 465.687 268.168 470.007C268.124 469.895 268.075 469.774 268.02 469.645C266.648 466.422 263.273 461.767 258.108 454.666C248.101 440.909 233.161 420.224 221.745 390.485C210.329 360.744 207.628 335.472 205.897 318.646C205.003 309.957 204.414 304.296 203.293 301.024C203.15 300.608 203.02 300.298 202.911 300.07Z" fill="#6D8EFA"/>
</svg>
