<svg width="519" height="150" viewBox="0 0 519 150" fill="none" xmlns="http://www.w3.org/2000/svg">
<path d="M124.117 104.471L124.117 49.6074L134.619 49.6074L157.975 88.3252L152.41 88.3252L175.375 49.6074L185.799 49.6074L185.955 104.471L174.042 104.471L173.964 67.869L176.158 67.869L157.818 98.6709L152.097 98.6709L133.365 67.869L136.03 67.869L136.03 104.471L124.117 104.471ZM219.036 105.098C214.229 105.098 209.997 104.157 206.339 102.276C202.734 100.395 199.939 97.8349 197.953 94.5953C195.967 91.3035 194.975 87.5676 194.975 83.3875C194.975 79.1552 195.941 75.4193 197.875 72.1797C199.86 68.8879 202.551 66.3276 205.947 64.4989C209.344 62.6178 213.184 61.6773 217.469 61.6773C221.596 61.6773 225.306 62.5656 228.598 64.3421C231.942 66.0664 234.581 68.5744 236.514 71.8662C238.447 75.1058 239.414 78.9985 239.414 83.5443C239.414 84.0145 239.388 84.5632 239.336 85.1902C239.283 85.7649 239.231 86.3136 239.179 86.8361L204.928 86.8361L204.928 79.7038L232.752 79.7038L228.049 81.82C228.049 79.6255 227.605 77.7183 226.717 76.0985C225.829 74.4788 224.601 73.2248 223.033 72.3365C221.466 71.396 219.637 70.9257 217.547 70.9257C215.457 70.9257 213.602 71.396 211.982 72.3365C210.415 73.2248 209.187 74.5049 208.299 76.1769C207.41 77.7967 206.966 79.73 206.966 81.9768L206.966 83.8578C206.966 86.1568 207.463 88.1946 208.455 89.9711C209.5 91.6954 210.937 93.0278 212.766 93.9683C214.647 94.8566 216.842 95.3007 219.35 95.3007C221.596 95.3007 223.556 94.9611 225.228 94.2818C226.952 93.6025 228.52 92.5837 229.93 91.2251L236.436 98.279C234.502 100.474 232.073 102.172 229.147 103.373C226.221 104.523 222.85 105.098 219.036 105.098ZM247.554 104.471L247.554 62.3043L259.232 62.3043L259.232 74.2175L257.586 70.769C258.84 67.7907 260.852 65.5439 263.621 64.0286C266.39 62.4611 269.761 61.6773 273.732 61.6773L273.732 72.9635C273.209 72.9112 272.739 72.8851 272.321 72.8851C271.903 72.8329 271.459 72.8067 270.989 72.8067C267.644 72.8067 264.927 73.7734 262.837 75.7067C260.8 77.5877 259.781 80.5399 259.781 84.5632L259.781 104.471L247.554 104.471ZM281.078 104.471L281.078 62.3043L293.305 62.3043L293.305 104.471L281.078 104.471ZM287.192 56.4261C284.945 56.4261 283.116 55.773 281.705 54.4667C280.294 53.1605 279.589 51.5407 279.589 49.6074C279.589 47.6741 280.294 46.0544 281.705 44.7481C283.116 43.4418 284.945 42.7887 287.192 42.7887C289.438 42.7887 291.267 43.4157 292.678 44.6697C294.089 45.8715 294.794 47.439 294.794 49.3723C294.794 51.4101 294.089 53.1082 292.678 54.4667C291.319 55.773 289.491 56.4261 287.192 56.4261ZM322.757 105.098C318.786 105.098 315.207 104.209 312.02 102.433C308.832 100.604 306.298 98.07 304.417 94.8304C302.588 91.5909 301.674 87.7766 301.674 83.3875C301.674 78.9462 302.588 75.1058 304.417 71.8662C306.298 68.6267 308.832 66.1186 312.02 64.3421C315.207 62.5656 318.786 61.6773 322.757 61.6773C326.31 61.6773 329.419 62.4611 332.084 64.0286C334.749 65.5961 336.813 67.9736 338.276 71.1608C339.739 74.3481 340.47 78.4237 340.47 83.3875C340.47 88.2991 339.765 92.3747 338.354 95.6142C336.943 98.8015 334.905 101.179 332.241 102.746C329.628 104.314 326.467 105.098 322.757 105.098ZM324.873 95.0656C326.859 95.0656 328.662 94.5953 330.281 93.6548C331.901 92.7143 333.181 91.3819 334.122 89.6576C335.114 87.8811 335.611 85.7911 335.611 83.3875C335.611 80.9317 335.114 78.8417 334.122 77.1174C333.181 75.3932 331.901 74.0608 330.281 73.1203C328.662 72.1797 326.859 71.7095 324.873 71.7095C322.836 71.7095 321.007 72.1797 319.387 73.1203C317.767 74.0608 316.461 75.3932 315.468 77.1174C314.528 78.8417 314.057 80.9317 314.057 83.3875C314.057 85.7911 314.528 87.8811 315.468 89.6576C316.461 91.3819 317.767 92.7143 319.387 93.6548C321.007 94.5953 322.836 95.0656 324.873 95.0656ZM335.924 104.471L335.924 95.8493L336.16 83.3091L335.376 70.8473L335.376 46.3156L347.602 46.3156L347.602 104.471L335.924 104.471ZM358.919 104.471L358.919 62.3043L371.145 62.3043L371.145 104.471L358.919 104.471ZM365.032 56.4261C362.785 56.4261 360.956 55.773 359.546 54.4667C358.135 53.1605 357.429 51.5407 357.429 49.6074C357.429 47.6741 358.135 46.0544 359.546 44.7481C360.956 43.4418 362.785 42.7887 365.032 42.7887C367.279 42.7887 369.107 43.4157 370.518 44.6697C371.929 45.8715 372.634 47.439 372.634 49.3723C372.634 51.4101 371.929 53.1082 370.518 54.4667C369.16 55.773 367.331 56.4261 365.032 56.4261ZM408.357 104.471L408.357 96.2412L407.573 94.4386L407.573 79.7038C407.573 77.0913 406.763 75.0535 405.143 73.5905C403.576 72.1275 401.146 71.396 397.854 71.396C395.608 71.396 393.387 71.7617 391.192 72.4932C389.05 73.1725 387.221 74.113 385.706 75.3148L381.317 66.7718C383.616 65.152 386.385 63.898 389.625 63.0097C392.864 62.1215 396.156 61.6773 399.5 61.6773C405.927 61.6773 410.917 63.1926 414.47 66.2231C418.023 69.2537 419.8 73.9824 419.8 80.4092L419.8 104.471L408.357 104.471ZM395.503 105.098C392.211 105.098 389.39 104.549 387.038 103.452C384.687 102.302 382.885 100.761 381.631 98.8276C380.377 96.8943 379.749 94.7259 379.749 92.3224C379.749 89.8144 380.35 87.6198 381.552 85.7388C382.806 83.8578 384.766 82.3948 387.43 81.3497C390.095 80.2525 393.57 79.7038 397.854 79.7038L409.062 79.7038L409.062 86.8361L399.187 86.8361C396.313 86.8361 394.327 87.3063 393.23 88.2468C392.185 89.1874 391.663 90.363 391.663 91.7738C391.663 93.3413 392.264 94.5953 393.465 95.5358C394.719 96.4241 396.417 96.8682 398.56 96.8682C400.598 96.8682 402.426 96.398 404.046 95.4575C405.666 94.4647 406.842 93.0278 407.573 91.1468L409.454 96.7898C408.566 99.5069 406.946 101.571 404.595 102.982C402.243 104.392 399.213 105.098 395.503 105.098ZM430.865 104.471L430.865 62.3043L442.543 62.3043L442.543 73.9824L440.349 70.4555C441.864 67.6339 444.033 65.4655 446.854 63.9502C449.676 62.435 452.889 61.6773 456.494 61.6773C459.838 61.6773 462.817 62.3566 465.429 63.7151C468.094 65.0214 470.184 67.0592 471.699 69.8285C473.215 72.5455 473.972 76.0463 473.972 80.3309L473.972 104.471L461.746 104.471L461.746 82.2119C461.746 78.8156 460.988 76.3075 459.473 74.6878C458.01 73.068 455.92 72.2581 453.203 72.2581C451.269 72.2581 449.519 72.6761 447.951 73.5121C446.436 74.2959 445.234 75.5238 444.346 77.1958C443.51 78.8678 443.092 81.0101 443.092 83.6227L443.092 104.471L430.865 104.471Z" fill="#414141"/>
<path d="M58.2497 44.6997C75.6572 38.0176 95.1859 46.7125 101.868 64.1199C108.55 81.5274 99.8556 101.056 82.448 107.738C65.0405 114.42 45.5117 105.726 38.8296 88.3181C32.1477 70.9107 40.8425 51.3819 58.2497 44.6997ZM60.1428 49.288C59.6942 49.4602 59.1462 50.1013 58.8456 51.7755C58.5578 53.378 58.562 55.6095 58.8805 58.3438C59.5156 63.7963 61.3712 71.0128 64.3154 78.6825C67.2595 86.3522 70.7093 92.9568 73.8857 97.4338C75.4786 99.6789 76.9687 101.34 78.2548 102.338C79.5985 103.381 80.4347 103.491 80.8834 103.319C81.3319 103.147 81.8791 102.506 82.1797 100.832C82.4674 99.2292 82.4642 96.9974 82.1457 94.2631C81.5106 88.8106 79.654 81.5943 76.7099 73.9247C73.7658 66.2551 70.3169 59.65 67.1405 55.1731C65.5475 52.928 64.0566 51.2673 62.7704 50.2689C61.4271 49.2262 60.5915 49.1159 60.1428 49.288ZM51.8401 54.4511C51.2554 54.6757 50.4908 55.4639 49.805 57.0984C49.1409 58.681 48.634 60.8667 48.4245 63.5248C48.0062 68.8341 48.7856 75.8915 51.6988 83.4806C54.6122 91.0703 58.7946 96.9374 62.7003 100.703C64.6556 102.589 66.5154 103.924 68.0846 104.691C69.7098 105.486 70.8066 105.571 71.3788 105.351C71.6106 105.262 71.6697 105.166 71.7064 105.052C71.7649 104.87 71.7863 104.523 71.6488 103.918C71.373 102.705 70.5919 100.987 69.4297 98.7039C67.1454 94.2166 63.5618 87.8674 60.5705 80.075C57.5789 72.2815 56.0315 65.2639 54.7635 60.4973C54.1179 58.07 53.5684 56.3228 52.9782 55.2767C52.6849 54.7571 52.4462 54.5315 52.2917 54.445C52.1961 54.3916 52.0841 54.3574 51.8401 54.4511ZM69.7469 47.5313C69.5029 47.6249 69.4434 47.725 69.4081 47.8287C69.3511 47.9961 69.3247 48.3233 69.4545 48.9061C69.7159 50.0783 70.4757 51.7448 71.6201 53.9807C73.8672 58.3714 77.413 64.6219 80.4047 72.4154C83.3959 80.2078 84.9811 87.3241 86.2862 92.1873C86.9502 94.6617 87.5192 96.461 88.126 97.547C88.4287 98.0886 88.677 98.3324 88.8419 98.4281C88.9452 98.4881 89.0539 98.5204 89.2856 98.4314C89.8577 98.2117 90.616 97.4149 91.292 95.7366C91.9446 94.1162 92.4345 91.8796 92.626 89.17C93.0084 83.7579 92.1898 76.5995 89.2764 69.0099C86.3632 61.4207 82.2201 55.6546 78.3566 51.9889C76.4223 50.1536 74.5831 48.8686 73.0306 48.1369C71.4271 47.3811 70.3316 47.3069 69.7469 47.5313ZM82.8017 50.6875C83.0964 51.379 83.8252 52.3789 84.9443 53.9121C87.1116 56.8813 90.35 61.3564 92.8312 67.82C95.3123 74.2834 95.9081 79.7977 96.2924 83.4749C96.4907 85.3725 96.6224 86.6149 96.8694 87.335C96.8792 87.3638 96.8887 87.3907 96.898 87.4151C97.9688 85.1876 100.235 77.7468 95.9629 66.6179C93.5883 60.4319 90.4473 56.315 87.743 53.7771C86.3887 52.5062 85.1496 51.6368 84.1791 51.1012C83.6931 50.833 83.2869 50.6557 82.9777 50.5519C82.8749 50.5174 82.7903 50.4936 82.7243 50.4776C82.7397 50.5303 82.7642 50.5996 82.8017 50.6875ZM43.9609 65.4401C43.8006 65.7242 43.6173 66.1277 43.4356 66.6522C43.0728 67.6996 42.7347 69.1746 42.5786 71.0252C42.267 74.7208 42.6869 79.8828 45.0616 86.0692C49.3336 97.1979 55.9965 101.211 58.2827 102.15C58.2733 102.126 58.2623 102.099 58.2505 102.072C57.9522 101.371 57.2185 100.359 56.0959 98.8159C53.921 95.8261 50.6743 91.3303 48.1933 84.867C45.7121 78.4032 45.1253 72.9106 44.7491 69.2537C44.5548 67.3655 44.4264 66.1352 44.1828 65.424C44.1518 65.3336 44.1237 65.2658 44.0999 65.2163C44.0616 65.2723 44.0142 65.3458 43.9609 65.4401Z" fill="#6D8EFA"/>
<rect x="37" y="43.2383" width="66" height="66" rx="33" fill="#6D8EFA" fill-opacity="0.21"/>
</svg>
