<svg width="255" height="255" viewBox="0 0 255 255" fill="none" xmlns="http://www.w3.org/2000/svg">
<rect y="71.0708" width="196.862" height="196.862" rx="98.4311" transform="rotate(-21.1323 0 71.0708)" fill="#6D8EFA" fill-opacity="0.3"/>
<path fill-rule="evenodd" clip-rule="evenodd" d="M97.4806 49.5086C87.2319 53.4699 77.8637 59.4111 69.911 66.9929C61.9583 74.5747 55.5769 83.6486 51.131 93.6967C46.6851 103.745 44.2619 114.57 43.9996 125.555C43.7373 136.539 45.6412 147.468 49.6025 157.716C53.5638 167.965 59.505 177.333 67.0868 185.286C74.6686 193.239 83.7425 199.62 93.7906 204.066C103.839 208.512 114.664 210.935 125.648 211.197C136.633 211.46 147.562 209.556 157.81 205.595C178.509 197.594 195.181 181.699 204.16 161.406C213.139 141.114 213.689 118.085 205.688 97.3867C197.688 76.6884 181.793 60.016 161.5 51.0371C141.207 42.0582 118.179 41.5084 97.4806 49.5086ZM35.8314 163.039C26.4195 138.689 27.0663 111.596 37.6296 87.7228C48.1928 63.8491 67.8072 45.1494 92.1578 35.7375C116.508 26.3256 143.601 26.9724 167.474 37.5357C191.348 48.0989 210.048 67.7133 219.46 92.0639C228.872 116.415 228.225 143.507 217.661 167.38C207.098 191.254 187.484 209.954 163.133 219.366C138.783 228.778 111.69 228.131 87.8167 217.567C63.943 207.004 45.2433 187.39 35.8314 163.039Z" fill="#6D8EFA"/>
<path fill-rule="evenodd" clip-rule="evenodd" d="M70.4329 66.4601C78.2665 59.114 87.4494 53.3555 97.4739 49.5031C107.483 45.612 118.152 43.6975 128.89 43.8655C133.696 46.2408 138.423 49.3369 142.94 52.9824C151.393 59.8072 159.407 68.7842 166.464 79.4344C170.885 78.884 175.086 78.5523 179.068 78.4393C185.302 78.2574 191.094 78.6029 196.198 79.5597C198.998 83.5569 201.454 87.8356 203.565 92.3958C202.249 91.6156 200.85 90.9833 199.395 90.5102C194.498 88.8496 187.723 88.0373 179.354 88.2869C177.039 88.3499 174.634 88.4961 172.138 88.7255C178.698 100.456 183.764 112.961 187.217 125.95C189.022 124.569 190.721 123.192 192.314 121.818C198.676 116.374 203.143 111.217 205.65 106.694C206.494 105.15 207.1 103.75 207.469 102.494C208.973 107.289 210.033 112.107 210.649 116.948C207.109 121.467 203.11 125.607 198.716 129.302C195.78 131.801 192.739 134.173 189.601 136.412C192.384 150.931 192.771 164.816 190.883 177.02C190.531 179.319 190.084 181.603 189.541 183.865C184.85 189.02 179.482 193.634 173.496 197.541C177.152 191.784 179.785 184.361 181.154 175.511C182.687 165.673 182.567 154.38 180.663 142.395C170.451 148.771 158.541 154.845 145.522 160.155L162.341 203.668C159.352 205.032 156.284 206.218 153.154 207.219L136.335 163.706C124.003 168.266 111.306 171.772 98.3814 174.187C105.028 184.35 112.539 192.775 120.294 199.035C127.259 204.663 134.2 208.385 140.778 210.187C133.811 211.304 126.73 211.529 119.706 210.857C117.783 209.548 115.916 208.159 114.109 206.694C104.504 198.933 95.4525 188.397 87.7468 175.78C83.9154 176.236 80.0662 176.527 76.2099 176.653C70.4733 176.874 64.7293 176.499 59.0698 175.536C56.2404 171.484 53.778 167.187 51.7121 162.696C52.8232 163.381 54.2135 164.009 55.8829 164.582C60.7798 166.243 67.5544 167.055 75.9235 166.805C78.026 166.75 80.2085 166.623 82.4709 166.424C76.2928 154.493 71.6323 141.835 68.598 128.746C66.5968 130.254 64.7173 131.76 62.9593 133.264C56.6017 138.718 52.1345 143.875 49.6274 148.398C48.7771 149.944 48.1677 151.346 47.7993 152.602C46.3079 147.802 45.2509 142.983 44.6282 138.144C48.1687 133.625 52.1679 129.485 56.5616 125.79C59.58 123.205 62.9088 120.626 66.5483 118.054C64.6118 105.435 64.5016 93.392 66.1705 82.6662C66.9966 77.125 68.4259 71.6907 70.4329 66.4601ZM136.759 60.6513C143.365 65.9843 149.806 72.9073 155.68 81.1299C143.175 83.5423 130.888 86.9725 118.942 91.3863L102.416 48.6289C112.609 46.8165 124.648 50.874 136.759 60.6513ZM161.545 90.0798C148.229 92.3546 135.153 95.8611 122.486 100.554L141.971 150.968C155.89 145.276 168.344 138.736 178.592 132.023C177.086 125.685 175.084 119.277 172.589 112.801C169.423 104.612 165.686 96.9894 161.545 90.0798ZM93.2286 52.1799L109.748 94.918C97.936 99.69 86.5342 105.419 75.6561 112.049C74.4826 102.01 74.5833 92.5585 75.8912 84.1555C78.2722 68.7879 84.4699 57.704 93.2286 52.1799ZM113.295 104.096C100.764 109.142 88.7289 115.341 77.3445 122.614C79.0216 130.881 81.3998 138.991 84.4533 146.856C86.9517 153.32 89.8017 159.425 92.9344 165.109C105.037 163.194 118.643 159.661 132.777 154.499L113.295 104.096Z" fill="#6D8EFA"/>
</svg>
