<svg width="301" height="301" viewBox="0 0 301 301" fill="none" xmlns="http://www.w3.org/2000/svg">
<g clip-path="url(#clip0_10283_11475)">
<rect x="34" y="33.8125" width="232" height="232" rx="116" fill="#6D8EFA" fill-opacity="0.21"/>
<path d="M108.616 41.8922C168.426 18.9333 235.523 48.8069 258.482 108.617C281.441 168.427 251.567 235.524 191.757 258.483C131.947 281.442 64.8499 251.568 41.891 191.758C18.9321 131.948 48.8057 64.8511 108.616 41.8922ZM115.362 57.5987C113.817 58.1917 111.93 60.3984 110.895 66.1641C109.904 71.6823 109.918 79.3656 111.015 88.7805C113.202 107.556 119.593 132.405 129.731 158.816C139.869 185.226 151.747 207.969 162.685 223.386C168.17 231.116 173.3 236.835 177.729 240.273C182.356 243.865 185.236 244.242 186.78 243.649C188.325 243.056 190.212 240.849 191.247 235.084C192.238 229.566 192.224 221.883 191.127 212.468C188.94 193.692 182.549 168.843 172.411 142.433C162.273 116.022 150.395 93.2788 139.457 77.8625C133.972 70.132 128.841 64.413 124.413 60.9751C119.786 57.3833 116.907 57.0057 115.362 57.5987ZM86.7812 75.3734C84.7678 76.1463 82.1342 78.8605 79.7721 84.4898C77.4854 89.9395 75.739 97.4659 75.0178 106.619C73.5773 124.902 76.2616 149.204 86.293 175.336C96.3251 201.471 110.726 221.674 124.175 234.642C130.908 241.135 137.314 245.729 142.717 248.372C148.315 251.11 152.092 251.401 154.062 250.645C154.859 250.339 155.061 250.008 155.188 249.616C155.389 248.992 155.464 247.796 154.99 245.712C154.041 241.534 151.35 235.618 147.347 227.755C139.482 212.304 127.143 190.442 116.843 163.609C106.542 136.773 101.212 112.609 96.8462 96.1953C94.6228 87.837 92.7305 81.8224 90.6983 78.2202C89.6875 76.4287 88.8652 75.6513 88.3334 75.3539C88.0042 75.1699 87.6212 75.051 86.7812 75.3734ZM148.442 51.5473C147.601 51.8698 147.395 52.2138 147.274 52.5709C147.078 53.1478 146.988 54.2756 147.435 56.283C148.335 60.3198 150.954 66.0556 154.894 73.7548C162.632 88.8738 174.841 110.398 185.143 137.235C195.443 164.067 200.902 188.57 205.396 205.316C207.682 213.837 209.641 220.034 211.731 223.773C212.773 225.639 213.628 226.478 214.196 226.807C214.551 227.014 214.924 227.124 215.722 226.818C217.692 226.062 220.303 223.318 222.631 217.538C224.878 211.958 226.565 204.257 227.224 194.927C228.541 176.291 225.725 151.642 215.693 125.507C205.661 99.3744 191.394 79.5182 178.09 66.8958C171.429 60.576 165.096 56.1509 159.75 53.6311C154.228 51.0284 150.455 50.7744 148.442 51.5473ZM193.128 61.6974C193.182 61.8791 193.265 62.1174 193.394 62.4206C194.409 64.8019 196.917 68.2452 200.771 73.5253C208.234 83.7499 219.387 99.1577 227.931 121.415C236.474 143.672 238.524 162.658 239.847 175.32C240.53 181.855 240.985 186.135 241.836 188.614C241.87 188.713 241.903 188.805 241.935 188.889C245.622 181.219 253.426 155.598 238.715 117.276C230.538 95.9733 219.719 81.7967 210.407 73.0578C205.743 68.6817 201.478 65.6883 198.136 63.8441C196.462 62.92 195.063 62.3089 193.998 61.9515C193.644 61.8328 193.356 61.7526 193.128 61.6974ZM60.1261 112.448C59.9942 112.641 59.8331 112.893 59.6496 113.217C59.0974 114.196 58.4672 115.586 57.8413 117.393C56.592 120.999 55.4253 126.078 54.8879 132.45C53.8149 145.176 55.2609 162.95 63.4381 184.253C78.1485 222.574 101.091 236.394 108.963 239.627C108.931 239.543 108.894 239.452 108.853 239.355C107.826 236.943 105.3 233.46 101.435 228.146C93.9457 217.851 82.7651 202.37 74.2217 180.113C65.6777 157.856 63.6567 138.943 62.3613 126.35C61.6924 119.848 61.2511 115.611 60.4119 113.162C60.3052 112.851 60.208 112.618 60.1261 112.448Z" fill="#6D8EFA"/>
</g>
<defs>
<clipPath id="clip0_10283_11475">
<rect width="232" height="232" fill="white" transform="translate(34 34)"/>
</clipPath>
</defs>
</svg>
