<svg width="1217" height="240" viewBox="0 0 1217 240" fill="none" xmlns="http://www.w3.org/2000/svg">
<rect width="1217" height="239.341" rx="119.671" fill="white" fill-opacity="0.15"/>
<g clip-path="url(#clip0_8664_5526)">
<rect x="64.5977" y="86.2393" width="122.644" height="122.644" rx="61.3219" transform="rotate(-21.1323 64.5977 86.2393)" fill="#6D8EFA" fill-opacity="0.3"/>
<path fill-rule="evenodd" clip-rule="evenodd" d="M125.34 72.8028C118.955 75.2707 113.119 78.972 108.164 83.6954C103.21 88.4188 99.234 94.0718 96.4643 100.332C93.6945 106.591 92.1849 113.336 92.0215 120.179C91.8581 127.022 93.0442 133.831 95.5121 140.215C97.9799 146.6 101.681 152.437 106.405 157.391C111.128 162.346 116.781 166.321 123.041 169.091C129.301 171.861 136.045 173.37 142.888 173.534C149.731 173.697 156.54 172.511 162.925 170.043C175.82 165.059 186.206 155.157 191.8 142.514C197.394 129.872 197.736 115.525 192.752 102.631C187.768 89.7356 177.866 79.3488 165.224 73.755C152.581 68.1613 138.235 67.8187 125.34 72.8028ZM86.9327 143.532C81.0692 128.361 81.4722 111.483 88.053 96.6099C94.6338 81.7368 106.853 70.087 122.024 64.2235C137.194 58.36 154.072 58.7629 168.945 65.3437C183.818 71.9246 195.468 84.1442 201.332 99.3145C207.195 114.485 206.792 131.363 200.211 146.236C193.631 161.109 181.411 172.759 166.241 178.622C151.071 184.486 134.192 184.083 119.319 177.502C104.446 170.921 92.7963 158.702 86.9327 143.532Z" fill="#6D8EFA"/>
<path fill-rule="evenodd" clip-rule="evenodd" d="M108.486 83.3686C113.366 78.792 119.087 75.2045 125.332 72.8045C131.568 70.3804 138.215 69.1877 144.904 69.2923C147.898 70.7721 150.843 72.701 153.657 74.972C158.923 79.2239 163.916 84.8165 168.313 91.4515C171.067 91.1086 173.684 90.9019 176.164 90.8315C180.048 90.7182 183.657 90.9335 186.837 91.5295C188.581 94.0197 190.111 96.6853 191.426 99.5263C190.606 99.0403 189.735 98.6463 188.828 98.3516C185.777 97.3171 181.557 96.811 176.343 96.9665C174.901 97.0058 173.402 97.0968 171.848 97.2398C175.934 104.548 179.09 112.338 181.241 120.43C182.366 119.57 183.425 118.712 184.417 117.856C188.38 114.465 191.163 111.252 192.725 108.434C193.251 107.472 193.628 106.6 193.858 105.817C194.795 108.805 195.456 111.806 195.84 114.822C193.634 117.638 191.142 120.217 188.405 122.519C186.576 124.076 184.682 125.553 182.727 126.948C184.46 135.993 184.702 144.644 183.525 152.246C183.306 153.679 183.027 155.102 182.689 156.511C179.767 159.722 176.423 162.597 172.693 165.031C174.971 161.444 176.612 156.82 177.464 151.306C178.42 145.177 178.344 138.142 177.158 130.676C170.797 134.647 163.377 138.431 155.266 141.74L165.744 168.848C163.881 169.698 161.97 170.437 160.02 171.06L149.543 143.952C141.859 146.793 133.95 148.977 125.898 150.482C130.038 156.813 134.718 162.062 139.549 165.961C143.888 169.468 148.213 171.787 152.31 172.909C147.97 173.605 143.559 173.746 139.183 173.327C137.985 172.512 136.821 171.646 135.696 170.733C129.712 165.898 124.073 159.334 119.272 151.474C116.885 151.758 114.487 151.939 112.085 152.018C108.511 152.155 104.933 151.922 101.407 151.322C99.644 148.797 98.11 146.12 96.823 143.323C97.5152 143.749 98.3813 144.141 99.4213 144.498C102.472 145.532 106.693 146.038 111.906 145.883C113.216 145.848 114.576 145.769 115.985 145.646C112.137 138.212 109.233 130.326 107.343 122.172C106.096 123.112 104.925 124.05 103.83 124.987C99.8691 128.385 97.0861 131.598 95.5242 134.415C94.9944 135.379 94.6148 136.252 94.3853 137.034C93.4562 134.044 92.7977 131.042 92.4097 128.027C94.6154 125.212 97.1069 122.632 99.8442 120.331C101.725 118.72 103.798 117.114 106.066 115.511C104.859 107.65 104.791 100.147 105.83 93.4649C106.345 90.0127 107.235 86.6272 108.486 83.3686ZM149.807 79.7497C153.922 83.0722 157.935 87.3851 161.594 92.5077C153.804 94.0107 146.149 96.1477 138.707 98.8974L128.411 72.2599C134.761 71.1308 142.262 73.6585 149.807 79.7497ZM165.248 98.0835C156.952 99.5006 148.806 101.685 140.914 104.609L153.054 136.016C161.725 132.47 169.484 128.396 175.868 124.214C174.93 120.265 173.683 116.273 172.128 112.239C170.156 107.137 167.828 102.388 165.248 98.0835ZM122.687 74.4721L132.979 101.098C125.62 104.071 118.517 107.64 111.74 111.77C111.009 105.516 111.072 99.6277 111.886 94.3926C113.37 84.8188 117.231 77.9136 122.687 74.4721ZM135.189 106.815C127.382 109.959 119.884 113.821 112.792 118.352C113.837 123.503 115.318 128.555 117.22 133.454C118.777 137.481 120.552 141.285 122.504 144.826C130.044 143.633 138.52 141.432 147.326 138.216L135.189 106.815Z" fill="#6D8EFA"/>
</g>
<path d="M242.978 171.737L242.978 71.2156L262.22 71.2156L305.014 142.155L294.818 142.155L336.894 71.2156L355.993 71.2156L356.28 171.737L334.452 171.737L334.309 104.675L338.33 104.675L304.727 161.111L294.244 161.111L259.923 104.675L264.805 104.675L264.805 171.737L242.978 171.737ZM416.891 172.886C408.084 172.886 400.329 171.163 393.628 167.716C387.022 164.27 381.9 159.579 378.262 153.643C374.624 147.612 372.805 140.767 372.805 133.108C372.805 125.354 374.576 118.509 378.119 112.573C381.757 106.542 386.687 101.851 392.91 98.5001C399.132 95.0536 406.169 93.3304 414.019 93.3304C421.582 93.3304 428.38 94.9579 434.411 98.2129C440.538 101.372 445.372 105.967 448.915 111.999C452.457 117.934 454.228 125.067 454.228 133.395C454.228 134.257 454.18 135.262 454.084 136.411C453.989 137.464 453.893 138.469 453.797 139.427L391.043 139.427L391.043 126.359L442.022 126.359L433.406 130.236C433.406 126.215 432.592 122.721 430.964 119.753C429.337 116.785 427.087 114.488 424.215 112.86C421.343 111.137 417.992 110.275 414.163 110.275C410.333 110.275 406.935 111.137 403.967 112.86C401.095 114.488 398.845 116.833 397.218 119.897C395.59 122.865 394.777 126.407 394.777 130.523L394.777 133.97C394.777 138.182 395.686 141.916 397.505 145.171C399.42 148.33 402.052 150.771 405.403 152.495C408.85 154.122 412.87 154.936 417.466 154.936C421.582 154.936 425.172 154.314 428.236 153.069C431.395 151.824 434.267 149.958 436.852 147.469L448.771 160.393C445.229 164.414 440.777 167.525 435.416 169.727C430.055 171.833 423.88 172.886 416.891 172.886ZM469.142 171.737L469.142 94.4792L490.539 94.4792L490.539 116.307L487.523 109.988C489.821 104.531 493.507 100.415 498.581 97.6385C503.655 94.7664 509.83 93.3304 517.106 93.3304L517.106 114.009C516.148 113.913 515.287 113.866 514.521 113.866C513.755 113.77 512.941 113.722 512.079 113.722C505.952 113.722 500.974 115.493 497.145 119.035C493.411 122.482 491.544 127.891 491.544 135.262L491.544 171.737L469.142 171.737ZM530.566 171.737L530.566 94.4792L552.968 94.4792L552.968 171.737L530.566 171.737ZM541.767 83.709C537.65 83.709 534.3 82.5124 531.715 80.119C529.13 77.7256 527.838 74.7578 527.838 71.2156C527.838 67.6734 529.13 64.7057 531.715 62.3123C534.3 59.9189 537.65 58.7222 541.767 58.7222C545.884 58.7222 549.234 59.871 551.819 62.1687C554.404 64.3706 555.696 67.2426 555.696 70.7848C555.696 74.5185 554.404 77.6299 551.819 80.119C549.33 82.5124 545.979 83.709 541.767 83.709ZM606.931 172.886C599.655 172.886 593.097 171.259 587.258 168.004C581.418 164.653 576.775 160.01 573.328 154.074C569.977 148.139 568.302 141.15 568.302 133.108C568.302 124.971 569.977 117.934 573.328 111.999C576.775 106.063 581.418 101.468 587.258 98.2129C593.097 94.9579 599.655 93.3304 606.931 93.3304C613.441 93.3304 619.137 94.7664 624.02 97.6385C628.902 100.511 632.684 104.866 635.364 110.706C638.045 116.546 639.385 124.013 639.385 133.108C639.385 142.107 638.093 149.575 635.508 155.51C632.923 161.35 629.189 165.706 624.307 168.578C619.52 171.45 613.728 172.886 606.931 172.886ZM610.808 154.505C614.446 154.505 617.749 153.643 620.717 151.92C623.685 150.197 626.03 147.756 627.753 144.596C629.572 141.341 630.482 137.512 630.482 133.108C630.482 128.609 629.572 124.779 627.753 121.62C626.03 118.461 623.685 116.02 620.717 114.296C617.749 112.573 614.446 111.712 610.808 111.712C607.075 111.712 603.724 112.573 600.756 114.296C597.788 116.02 595.395 118.461 593.576 121.62C591.853 124.779 590.991 128.609 590.991 133.108C590.991 137.512 591.853 141.341 593.576 144.596C595.395 147.756 597.788 150.197 600.756 151.92C603.724 153.643 607.075 154.505 610.808 154.505ZM631.056 171.737L631.056 155.941L631.487 132.965L630.051 110.132L630.051 65.1843L652.453 65.1843L652.453 171.737L631.056 171.737ZM673.187 171.737L673.187 94.4792L695.589 94.4792L695.589 171.737L673.187 171.737ZM684.388 83.709C680.271 83.709 676.92 82.5124 674.336 80.119C671.751 77.7256 670.458 74.7578 670.458 71.2156C670.458 67.6734 671.751 64.7057 674.336 62.3123C676.92 59.9189 680.271 58.7222 684.388 58.7222C688.504 58.7222 691.855 59.871 694.44 62.1687C697.025 64.3706 698.317 67.2426 698.317 70.7848C698.317 74.5185 697.025 77.6299 694.44 80.119C691.951 82.5124 688.6 83.709 684.388 83.709ZM763.768 171.737L763.768 156.659L762.332 153.356L762.332 126.359C762.332 121.572 760.849 117.839 757.881 115.158C755.009 112.477 750.557 111.137 744.526 111.137C740.409 111.137 736.34 111.807 732.32 113.148C728.394 114.392 725.044 116.115 722.267 118.317L714.226 102.665C718.438 99.6968 723.512 97.3991 729.448 95.7716C735.383 94.1442 741.414 93.3304 747.541 93.3304C759.317 93.3304 768.459 96.1067 774.969 101.659C781.479 107.212 784.734 115.876 784.734 127.651L784.734 171.737L763.768 171.737ZM740.218 172.886C734.186 172.886 729.017 171.881 724.709 169.87C720.401 167.764 717.098 164.94 714.8 161.398C712.502 157.856 711.354 153.883 711.354 149.479C711.354 144.884 712.455 140.863 714.656 137.416C716.954 133.97 720.544 131.289 725.427 129.375C730.309 127.364 736.675 126.359 744.526 126.359L765.061 126.359L765.061 139.427L746.967 139.427C741.702 139.427 738.064 140.288 736.053 142.012C734.139 143.735 733.181 145.889 733.181 148.474C733.181 151.346 734.282 153.643 736.484 155.367C738.782 156.994 741.893 157.808 745.818 157.808C749.552 157.808 752.903 156.946 755.87 155.223C758.838 153.404 760.992 150.771 762.332 147.325L765.779 157.664C764.151 162.642 761.184 166.424 756.876 169.009C752.567 171.594 747.015 172.886 740.218 172.886ZM805.009 171.737L805.009 94.4792L826.406 94.4792L826.406 115.876L822.385 109.414C825.161 104.244 829.134 100.271 834.304 97.4949C839.474 94.7186 845.362 93.3304 851.967 93.3304C858.094 93.3304 863.551 94.575 868.338 97.0641C873.22 99.4574 877.05 103.191 879.826 108.265C882.602 113.243 883.991 119.658 883.991 127.508L883.991 171.737L861.589 171.737L861.589 130.954C861.589 124.731 860.2 120.136 857.424 117.168C854.744 114.201 850.914 112.717 845.936 112.717C842.394 112.717 839.187 113.483 836.315 115.014C833.538 116.45 831.336 118.7 829.709 121.764C828.177 124.827 827.411 128.752 827.411 133.539L827.411 171.737L805.009 171.737Z" fill="#414141"/>
<path d="M995.083 173.461C987.137 173.461 979.813 172.216 973.112 169.727C966.506 167.142 960.714 163.504 955.736 158.813C950.853 154.122 947.024 148.617 944.248 142.299C941.567 135.98 940.227 129.04 940.227 121.476C940.227 113.913 941.567 106.973 944.248 100.654C947.024 94.3356 950.901 88.8309 955.879 84.1399C960.858 79.4488 966.697 75.8588 973.399 73.3697C980.1 70.7848 987.472 69.4924 995.514 69.4924C1004.42 69.4924 1012.41 70.9763 1019.5 73.9441C1026.68 76.9119 1032.71 81.2199 1037.59 86.8683L1022.65 100.654C1019.02 96.8247 1015.04 94.0006 1010.74 92.1816C1006.43 90.2669 1001.74 89.3095 996.662 89.3095C991.78 89.3095 987.328 90.0754 983.307 91.6072C979.287 93.1389 975.792 95.3408 972.824 98.2129C969.952 101.085 967.703 104.484 966.075 108.409C964.543 112.334 963.777 116.69 963.777 121.476C963.777 126.167 964.543 130.476 966.075 134.401C967.703 138.326 969.952 141.772 972.824 144.74C975.792 147.612 979.239 149.814 983.164 151.346C987.185 152.878 991.588 153.643 996.375 153.643C1000.97 153.643 1005.42 152.925 1009.73 151.489C1014.13 149.958 1018.39 147.421 1022.51 143.878L1035.72 160.68C1030.27 164.797 1023.9 167.956 1016.62 170.158C1009.44 172.36 1002.26 173.461 995.083 173.461ZM1035.72 160.68L1014.47 157.664L1014.47 119.897L1035.72 119.897L1035.72 160.68ZM1092.51 172.886C1084.28 172.886 1076.96 171.163 1070.54 167.716C1064.23 164.27 1059.2 159.579 1055.47 153.643C1051.83 147.612 1050.01 140.767 1050.01 133.108C1050.01 125.354 1051.83 118.509 1055.47 112.573C1059.2 106.542 1064.23 101.851 1070.54 98.5001C1076.96 95.0536 1084.28 93.3304 1092.51 93.3304C1100.65 93.3304 1107.93 95.0536 1114.34 98.5001C1120.76 101.851 1125.78 106.494 1129.42 112.43C1133.06 118.365 1134.88 125.258 1134.88 133.108C1134.88 140.767 1133.06 147.612 1129.42 153.643C1125.78 159.579 1120.76 164.27 1114.34 167.716C1107.93 171.163 1100.65 172.886 1092.51 172.886ZM1092.51 154.505C1096.25 154.505 1099.6 153.643 1102.57 151.92C1105.53 150.197 1107.88 147.756 1109.6 144.596C1111.33 141.341 1112.19 137.512 1112.19 133.108C1112.19 128.609 1111.33 124.779 1109.6 121.62C1107.88 118.461 1105.53 116.02 1102.57 114.296C1099.6 112.573 1096.25 111.712 1092.51 111.712C1088.78 111.712 1085.43 112.573 1082.46 114.296C1079.49 116.02 1077.1 118.461 1075.28 121.62C1073.56 124.779 1072.7 128.609 1072.7 133.108C1072.7 137.512 1073.56 141.341 1075.28 144.596C1077.1 147.756 1079.49 150.197 1082.46 151.92C1085.43 153.643 1088.78 154.505 1092.51 154.505Z" fill="#6D8EFA"/>
<g clip-path="url(#clip1_8664_5526)">
<rect x="64.5977" y="86.2393" width="122.644" height="122.644" rx="61.3219" transform="rotate(-21.1323 64.5977 86.2393)" fill="#6D8EFA" fill-opacity="0.3"/>
<path fill-rule="evenodd" clip-rule="evenodd" d="M125.34 72.8028C118.955 75.2707 113.119 78.972 108.164 83.6954C103.21 88.4188 99.234 94.0718 96.4643 100.332C93.6945 106.591 92.1849 113.336 92.0215 120.179C91.8581 127.022 93.0442 133.831 95.5121 140.215C97.9799 146.6 101.681 152.437 106.405 157.391C111.128 162.346 116.781 166.321 123.041 169.091C129.301 171.861 136.045 173.37 142.888 173.534C149.731 173.697 156.54 172.511 162.925 170.043C175.82 165.059 186.206 155.157 191.8 142.514C197.394 129.872 197.736 115.525 192.752 102.631C187.768 89.7356 177.866 79.3488 165.224 73.755C152.581 68.1613 138.235 67.8187 125.34 72.8028ZM86.9327 143.532C81.0692 128.361 81.4722 111.483 88.053 96.6099C94.6338 81.7368 106.853 70.087 122.024 64.2235C137.194 58.36 154.072 58.7629 168.945 65.3437C183.818 71.9246 195.468 84.1442 201.332 99.3145C207.195 114.485 206.792 131.363 200.211 146.236C193.631 161.109 181.411 172.759 166.241 178.622C151.071 184.486 134.192 184.083 119.319 177.502C104.446 170.921 92.7963 158.702 86.9327 143.532Z" fill="#6D8EFA"/>
<path fill-rule="evenodd" clip-rule="evenodd" d="M108.486 83.3686C113.366 78.792 119.087 75.2045 125.332 72.8045C131.568 70.3804 138.215 69.1877 144.904 69.2923C147.898 70.7721 150.843 72.701 153.657 74.972C158.923 79.2239 163.916 84.8165 168.313 91.4515C171.067 91.1086 173.684 90.9019 176.164 90.8315C180.048 90.7182 183.657 90.9335 186.837 91.5295C188.581 94.0197 190.111 96.6853 191.426 99.5263C190.606 99.0403 189.735 98.6463 188.828 98.3516C185.777 97.3171 181.557 96.811 176.343 96.9665C174.901 97.0058 173.402 97.0968 171.848 97.2398C175.934 104.548 179.09 112.338 181.241 120.43C182.366 119.57 183.425 118.712 184.417 117.856C188.38 114.465 191.163 111.252 192.725 108.434C193.251 107.472 193.628 106.6 193.858 105.817C194.795 108.805 195.456 111.806 195.84 114.822C193.634 117.638 191.142 120.217 188.405 122.519C186.576 124.076 184.682 125.553 182.727 126.948C184.46 135.993 184.702 144.644 183.525 152.246C183.306 153.679 183.027 155.102 182.689 156.511C179.767 159.722 176.423 162.597 172.693 165.031C174.971 161.444 176.612 156.82 177.464 151.306C178.42 145.177 178.344 138.142 177.158 130.676C170.797 134.647 163.377 138.431 155.266 141.74L165.744 168.848C163.881 169.698 161.97 170.437 160.02 171.06L149.543 143.952C141.859 146.793 133.95 148.977 125.898 150.482C130.038 156.813 134.718 162.062 139.549 165.961C143.888 169.468 148.213 171.787 152.31 172.909C147.97 173.605 143.559 173.746 139.183 173.327C137.985 172.512 136.821 171.646 135.696 170.733C129.712 165.898 124.073 159.334 119.272 151.474C116.885 151.758 114.487 151.939 112.085 152.018C108.511 152.155 104.933 151.922 101.407 151.322C99.644 148.797 98.11 146.12 96.823 143.323C97.5152 143.749 98.3813 144.141 99.4213 144.498C102.472 145.532 106.693 146.038 111.906 145.883C113.216 145.848 114.576 145.769 115.985 145.646C112.137 138.212 109.233 130.326 107.343 122.172C106.096 123.112 104.925 124.05 103.83 124.987C99.8691 128.385 97.0861 131.598 95.5242 134.415C94.9944 135.379 94.6148 136.252 94.3853 137.034C93.4562 134.044 92.7977 131.042 92.4097 128.027C94.6154 125.212 97.1069 122.632 99.8442 120.331C101.725 118.72 103.798 117.114 106.066 115.511C104.859 107.65 104.791 100.147 105.83 93.4649C106.345 90.0127 107.235 86.6272 108.486 83.3686ZM149.807 79.7497C153.922 83.0722 157.935 87.3851 161.594 92.5077C153.804 94.0107 146.149 96.1477 138.707 98.8974L128.411 72.2599C134.761 71.1308 142.262 73.6585 149.807 79.7497ZM165.248 98.0835C156.952 99.5006 148.806 101.685 140.914 104.609L153.054 136.016C161.725 132.47 169.484 128.396 175.868 124.214C174.93 120.265 173.683 116.273 172.128 112.239C170.156 107.137 167.828 102.388 165.248 98.0835ZM122.687 74.4721L132.979 101.098C125.62 104.071 118.517 107.64 111.74 111.77C111.009 105.516 111.072 99.6277 111.886 94.3926C113.37 84.8188 117.231 77.9136 122.687 74.4721ZM135.189 106.815C127.382 109.959 119.884 113.821 112.792 118.352C113.837 123.503 115.318 128.555 117.22 133.454C118.777 137.481 120.552 141.285 122.504 144.826C130.044 143.633 138.52 141.432 147.326 138.216L135.189 106.815Z" fill="#6D8EFA"/>
</g>
<defs>
<clipPath id="clip0_8664_5526">
<rect width="155.348" height="155.348" fill="white" transform="translate(43.6797 76.9766) rotate(-21.1323)"/>
</clipPath>
<clipPath id="clip1_8664_5526">
<rect width="155.348" height="155.348" fill="white" transform="translate(43.6797 76.9766) rotate(-21.1323)"/>
</clipPath>
</defs>
</svg>
