<svg width="301" height="301" viewBox="0 0 301 301" fill="none" xmlns="http://www.w3.org/2000/svg">
<g clip-path="url(#clip0_10365_527)">
<g clip-path="url(#clip1_10365_527)">
<rect y="-0.244141" width="301" height="301" rx="150.5" fill="#6D8EFA" fill-opacity="0.21"/>
<path d="M96.8085 10.2395C174.407 -19.5477 261.459 19.211 291.247 96.8089C321.034 174.407 282.276 261.461 204.678 291.248C127.079 321.035 40.0262 282.276 10.2391 204.678C-19.5478 127.08 19.2104 40.0266 96.8085 10.2395ZM105.56 30.6157C103.556 31.3852 101.108 34.2477 99.7648 41.7275C98.4793 48.887 98.4979 58.8555 99.9207 71.0708C102.758 95.4303 111.05 127.671 124.203 161.936C137.356 196.201 152.767 225.708 166.958 245.71C174.075 255.74 180.731 263.16 186.477 267.62C192.48 272.28 196.215 272.77 198.219 272.001C200.224 271.231 202.671 268.368 204.014 260.888C205.3 253.729 205.282 243.76 203.859 231.545C201.022 207.185 192.729 174.945 179.576 140.68C166.423 106.415 151.013 76.907 136.822 56.9058C129.705 46.8758 123.048 39.4559 117.302 34.9955C111.299 30.3354 107.565 29.8464 105.56 30.6157ZM68.4797 53.6792C65.8675 54.6821 62.4514 58.2031 59.3868 65.5066C56.42 72.577 54.1548 82.3408 53.219 94.2166C51.3501 117.936 54.832 149.466 67.8469 183.372C80.8627 217.279 99.5465 243.49 116.995 260.315C125.731 268.739 134.042 274.7 141.053 278.129C148.315 281.681 153.214 282.059 155.77 281.078C156.805 280.681 157.069 280.251 157.233 279.744C157.494 278.933 157.59 277.382 156.975 274.678C155.743 269.258 152.252 261.583 147.059 251.382C136.854 231.334 120.847 202.97 107.483 168.157C94.1177 133.339 87.2033 101.988 81.5387 80.6929C78.654 69.8486 76.1991 62.045 73.5624 57.3715C72.2511 55.0474 71.1847 54.0384 70.4946 53.6526C70.0674 53.4138 69.5701 53.2606 68.4797 53.6792ZM148.479 22.7643C147.389 23.1827 147.122 23.6292 146.965 24.0924C146.71 24.8408 146.593 26.3041 147.173 28.9088C148.341 34.1462 151.737 41.5884 156.85 51.5776C166.889 71.1932 182.73 99.1183 196.096 133.937C209.459 168.749 216.542 200.539 222.372 222.266C225.339 233.321 227.88 241.361 230.591 246.214C231.943 248.634 233.054 249.722 233.79 250.15C234.252 250.417 234.734 250.56 235.769 250.163C238.325 249.182 241.713 245.623 244.734 238.124C247.649 230.884 249.837 220.893 250.693 208.788C252.401 184.609 248.747 152.629 235.732 118.722C222.717 84.8163 204.206 59.0542 186.946 42.6777C178.304 34.4784 170.087 28.7382 163.151 25.469C155.987 22.092 151.091 21.7615 148.479 22.7643ZM206.455 35.9346C206.524 36.1704 206.632 36.4793 206.799 36.8726C208.116 39.962 211.37 44.429 216.37 51.2794C226.053 64.5448 240.523 84.5353 251.608 113.413C262.693 142.289 265.352 166.921 267.069 183.349C267.955 191.828 268.543 197.38 269.647 200.597C269.691 200.726 269.735 200.845 269.777 200.954C274.561 191.003 284.685 157.762 265.599 108.042C254.99 80.4044 240.954 62.0118 228.872 50.6738C222.822 44.9958 217.287 41.1119 212.952 38.7191C210.78 37.5204 208.965 36.7276 207.583 36.264C207.124 36.1099 206.75 36.0062 206.455 35.9346ZM33.8955 101.779C33.7243 102.029 33.5157 102.356 33.2778 102.777C32.5613 104.046 31.7437 105.85 30.9315 108.195C29.3107 112.874 27.7972 119.463 27.1 127.731C25.7078 144.241 27.5835 167.301 38.1926 194.939C57.2778 244.658 87.043 262.587 97.2574 266.782C97.2153 266.673 97.1685 266.556 97.1153 266.431C95.7828 263.301 92.5058 258.782 87.4908 251.888C77.7741 238.53 63.268 218.444 52.1835 189.568C41.0986 160.691 38.4761 136.153 36.7954 119.816C35.9275 111.379 35.3557 105.882 34.2668 102.705C34.1284 102.301 34.0017 102 33.8955 101.779Z" fill="#6D8EFA"/>
</g>
</g>
<defs>
<clipPath id="clip0_10365_527">
<rect width="300.605" height="300.605" fill="white"/>
</clipPath>
<clipPath id="clip1_10365_527">
<rect width="301" height="301" fill="white"/>
</clipPath>
</defs>
</svg>
